<svg version="1.0" fill="#fff" xmlns="http://www.w3.org/2000/svg" viewBox="0 0 24 24" xml:space="preserve">

	<g id="Free_Icons">
		<g>
			<polygon style="fill:none;stroke:#fff;stroke-linejoin:round;stroke-miterlimit:10;" points="10.5,6.5 9,7.5 7.5,6.5 7.5,5 
			9,4 10.5,5 		" />

			<line style="fill:none;stroke:#fff;stroke-linecap:round;stroke-linejoin:round;stroke-miterlimit:10;"
				x1="12" y1="0.5" x2="12" y2="1.5" />
			<polygon style="fill:none;stroke:#fff;stroke-linecap:round;stroke-linejoin:round;stroke-miterlimit:10;"
				points="16,23.5 
			8,23.5 6.5,16 9,13.5 15,13.5 17.5,16 		" />

			<line style="fill:none;stroke:#fff;stroke-linecap:round;stroke-linejoin:round;stroke-miterlimit:10;"
				x1="12" y1="10.5" x2="12" y2="13.5" />

			<line style="fill:none;stroke:#fff;stroke-linecap:round;stroke-linejoin:round;stroke-miterlimit:10;"
				x1="7.6" y1="21.5" x2="16.4" y2="21.5" />
			<polyline style="fill:none;stroke:#fff;stroke-linecap:round;stroke-linejoin:round;stroke-miterlimit:10;"
				points="2.5,16 
			3,19 6.844,17.719 		" />
			<polyline style="fill:none;stroke:#fff;stroke-linecap:round;stroke-linejoin:round;stroke-miterlimit:10;"
				points="0.5,12 
			0.5,14 2.5,16 4.5,14 4.5,12 		" />
			<polygon style="fill:none;stroke:#fff;stroke-linecap:round;stroke-linejoin:round;stroke-miterlimit:10;"
				points="16,10.5 
			20.5,6 16,1.5 8,1.5 3.5,6 8,10.5 		" />
			<polygon style="fill:none;stroke:#fff;stroke-linejoin:round;stroke-miterlimit:10;" points="13.5,6.5 15,7.5 16.5,6.5 16.5,5 
			15,4 13.5,5 		" />
			<polyline style="fill:none;stroke:#fff;stroke-linecap:round;stroke-linejoin:round;stroke-miterlimit:10;"
				points="21.5,16 
			21,19 17.156,17.719 		" />
			<polyline style="fill:none;stroke:#fff;stroke-linecap:round;stroke-linejoin:round;stroke-miterlimit:10;"
				points="23.5,12 
			23.5,14 21.5,16 19.5,14 19.5,12 		" />
		</g>
	</g>
</svg>